<svg id="Layer_1" data-name="Layer 1" xmlns="http://www.w3.org/2000/svg" width="64" height="64" viewBox="0 0 64 64"><defs><style>.cls-1{fill:#fff;}.cls-2{fill:#1d1d1b;}.cls-3{fill:#a42116;}.cls-4{fill:#e7413e;}.cls-5{fill:#f2910d;}.cls-6{fill:#fab900;}.cls-7{fill:#e6e4da;}</style></defs><title>alien-3</title><g id="alien-3"><path class="cls-1" d="M32.68,59.95a2,2,0,0,1-1.5-.59A4.83,4.83,0,0,1,30.08,57a3.69,3.69,0,0,1-2-1.6,3.12,3.12,0,0,1-.16-3.07,2.74,2.74,0,0,1,2.49-1.54h.18c.21-.27.4-.52.59-.73h-.2a18.36,18.36,0,0,1-6.63-1c-3.38-1.33-7.84-3.92-7.58-11.06.18-4.77,3.12-12.91,4.31-16a23.8,23.8,0,0,1-3.54-3c-.3-.4-.7-.87-1.07-1.29-1,1.55-1.61,2.09-2.54,2.09-.6,0-.95,0-4.74-3.08a5.06,5.06,0,0,1-4.88-2.42A4.06,4.06,0,0,1,4,9.94,6.07,6.07,0,0,1,9.24,7a5.49,5.49,0,0,1,.7,0,3.6,3.6,0,0,1,2.69,1.6,3.73,3.73,0,0,1,.43.92,3.25,3.25,0,0,1,2.28-1.07h.18c1.26.1,2.75,1.36,3.93,2.59A5.19,5.19,0,0,1,23,12.33a5,5,0,0,1,1.24,2.24c.95-2.05,3.06-5.46,6.77-6a5,5,0,0,1,.74-.05c3.56,0,7.9,3.75,10.28,6.1,1.81-3.4,2.48-3.6,3-3.75a2.1,2.1,0,0,1,.59-.08c.9,0,2,.57,3.5,1.46l1.41-1.62a4.4,4.4,0,0,1,1-4.8,5.13,5.13,0,0,1,3.84-1.76,5.18,5.18,0,0,1,4.94,4,3.91,3.91,0,0,1-.44,3.19,6.57,6.57,0,0,1-3.71,2.46c-4.23,6.09-4.69,6.2-5.33,6.36a2.48,2.48,0,0,1-.5.06,6.86,6.86,0,0,1-2.24-.59L47.57,21A22.92,22.92,0,0,1,52,32.45c.46,6,.41,11.59-5.13,14.25q-1.78.85-3.42,1.45a3,3,0,0,1,.56,1,3.61,3.61,0,0,1-.84,3.69,3,3,0,0,1-2,.72A3.23,3.23,0,0,1,39.32,53l-.23-.17h-.41c0,.4,0,.7,0,.92,1.22.26,2.55.86,2.55,2.33s-1.44,3.37-3,3.37h-.18a7.75,7.75,0,0,1-2.17-.59A8.09,8.09,0,0,1,32.68,59.95Z"/><path class="cls-2" d="M23.1,21.37a38,38,0,0,1-4.25-3.46c-.67-.87-2.58-3.12-2.79-2.83s-1.79,3-2.17,3A42.59,42.59,0,0,1,9.6,14.83a3.35,3.35,0,0,1-3.92-1.54c-1.62-2.42,1.42-4.92,4-4.58s1.67,3.5,1.67,3.5,1.08.79,1.17.67,1.75-2.79,2.83-2.71,3.33,2.63,3.33,2.63,2.13-.25,3.13.75.83,2.5,1.25,2.54,2.21.54,2.21.54,1.75-5.75,6-6.38,11.21,7.29,11.21,7.29,2.33-4.83,3-5,3.88,2,4,1.88,3.13-3.58,3.13-3.58A2.7,2.7,0,0,1,52.8,7a3.36,3.36,0,0,1,5.88,1.54c.79,2.92-3.54,3.71-3.54,3.71s-4.21,6.08-4.71,6.21-3.25-1.17-3.33-1-1.46,3.88-1.46,3.88a21.29,21.29,0,0,1,4.63,11.29c.5,6.58,0,10.58-4.17,12.58a25.38,25.38,0,0,1-7.75,2.54c-1,.13-2.54.25-2.54.25l.38,1.79,3.17.46a1.86,1.86,0,0,1,1.92-1.33C42.8,49,42.6,51,42,51.53a1.51,1.51,0,0,1-1.71.08c-.29-.21-.62-.5-.62-.5l-2.79,0a18.53,18.53,0,0,1,0,2.71l-.12.38.08,1s2.63.17,2.63.83-.83,1.71-1.29,1.67a5.55,5.55,0,0,1-2-.71c-.08-.21-.29-2.58-.29-2.58l-.67,0a14.07,14.07,0,0,1,.13,2.71c-.17.17-2.54,1.38-3,1s-.92-2-.54-2.12,2.71-.33,2.71-.46,0-1,0-1-.92-.54-.92-1.21-.08-1.62-.08-1.62a1.27,1.27,0,0,0-1.08.75,10.58,10.58,0,0,0-.54,1s.5,1.67-.67,2-2.5-1.17-1.92-2.29,1.88-.37,1.88-.37A11.38,11.38,0,0,1,33,50.66a7.29,7.29,0,0,1,.83-.46l.21-2s-5.37.71-9.08-.75-6.71-3.79-6.5-9.42S23.1,21.37,23.1,21.37Z"/><path class="cls-3" d="M30.47,53.28c.3-.22.83.92.5,1.17S29.68,53.87,30.47,53.28Z"/><path class="cls-3" d="M40.8,49.58c.62,0,1,.17,1,.71s-.75.75-1,.54S40.47,49.58,40.8,49.58Z"/><path class="cls-4" d="M34.93,49.12c.21-.31,1.46,3.63,1.17,4a1.56,1.56,0,0,1-1.5.21A18.29,18.29,0,0,1,34.93,49.12Z"/><path class="cls-5" d="M8.18,10.2c1.07,0,2.12-.08,2.29,1.21s-.67,2-2.13,2.21S6.51,12.24,6.6,11.78,7.14,10.24,8.18,10.2Z"/><path class="cls-6" d="M11.43,13.66c.18,0,1.21,1,1.54.71s2.67-3.08,2.83-3,2.58,3,3,2.88,1.21-.62,1.71-.37,1.17.63,1.25,1.08.13,2.33.75,2.46,2.21.21,2.17.42-1.12,2.42-1.12,2.42a7.28,7.28,0,0,1-3.75-3c-1.58-2.37-2.5-3.29-3.17-3.58s-.92-.42-1.17-.17-1.25,2.58-1.83,2.67-2.87-1.75-2.87-2S11.18,13.7,11.43,13.66Z"/><path class="cls-6" d="M43.3,18.12s2.08-4.75,2.63-4.46,3,2.17,3.42,2,3.92-4.29,4.13-4.17.5.17.38.33S50.18,17.24,50,17.2,47,15.7,46.76,16s-1.83,4.42-2,4.17S43.3,18.12,43.3,18.12Z"/><path class="cls-5" d="M54.72,7.08c2.38-.62,3.21,1.38,2.71,2.58a2.28,2.28,0,0,1-3.83.42C52.35,8.53,54.2,7.21,54.72,7.08Z"/><path class="cls-4" d="M31.35,11.91c1.89-.63,6.79,2.63,11.71,9s5.46,14.63,5.29,14.58-1.83-1.21-2-1.17-.37.54-.25.67,2.13,1.21,2.17,1.5-.08,1.13-.08,1.42a1.92,1.92,0,0,1-.08.54A17.54,17.54,0,0,0,45.47,37c-.12.13-.54.75-.33.83a15.09,15.09,0,0,1,2.79,1.71,4.69,4.69,0,0,1-.5,1.17l-.17.21-2.83-2s-.87.42-.5.75,3,2,2.83,2.29S45.85,43,45.85,43A20,20,0,0,0,43,41c-.29,0-.67.38-.5.54s2.67,2.08,2.5,2.21-1.08.63-1.08.63-2.08-1.54-2.25-1.58-.54.21-.54.38,2.13,1.58,2,1.67a7.39,7.39,0,0,1-2,.63C41,45.28,39.8,44,39.35,44s-.67.25-.5.42,1.54,1.17,1.38,1.29-7.33,1.42-11.37.71S22.26,44.7,21,41.16s.71-11.08,2.88-16.54S28.22,13,31.35,11.91Z"/><path class="cls-2" d="M23.64,39.87c.25-.16,1,.21.71.46s-.75.54-.87,1-.21.67-.42.63a.46.46,0,0,1-.37-.54A3,3,0,0,1,23.64,39.87Z"/><path class="cls-2" d="M25.68,41.45c.34,0,.79,1.33,2.17,1.63s3,.46,3.21.92a1,1,0,0,1-.87,1.21,9.55,9.55,0,0,1-4.08-1.62C25.1,42.7,24.85,41.45,25.68,41.45Z"/><path class="cls-2" d="M28.85,19.08c-.06-.11.08-.67.75-2.29s1.83-2,2.08-1.75.33.5.17.67a3.6,3.6,0,0,0-1.75,1.83c-.42,1.25-.33,1.42-.54,1.58S29,19.33,28.85,19.08Z"/><path class="cls-2" d="M27.35,24.41c-.05-.26,1.5-1.58,4.25-2.46s4.83-.71,4.88-.29a4.11,4.11,0,0,1-.12,1.08,8.77,8.77,0,0,0-4.79.46c-2.29,1-3.46,1.92-3.67,1.92S27.39,24.62,27.35,24.41Z"/><path class="cls-2" d="M33.14,25c4.25-1.1,9.25,2,10,5.71s-.79,8.88-6.87,9.67-9.29-1.58-10-5.54S27,26.53,33.14,25Z"/><path class="cls-7" d="M33.41,26.29c3.51-.91,7.64,1.65,8.22,4.71S41,38.33,36,39s-7.67-1.31-8.22-4.58S28.35,27.59,33.41,26.29Z"/><path class="cls-2" d="M33.83,28.37c2.35-.61,5.12,1.11,5.51,3.16a4.32,4.32,0,0,1-3.8,5.35c-3.37.44-5.14-.88-5.51-3.07S30.44,29.24,33.83,28.37Z"/><path class="cls-7" d="M34.89,29.78c.47-.24,2.42,1.13,2.13,1.58s-2.25.58-2.46.38S34.3,30.08,34.89,29.78Z"/></g></svg>