<?xml version="1.0" encoding="UTF-8"?>
<svg width="58px" height="56px" viewBox="0 0 58 56" version="1.1" xmlns="http://www.w3.org/2000/svg" xmlns:xlink="http://www.w3.org/1999/xlink">
    <!-- Generator: Sketch 48.2 (47327) - http://www.bohemiancoding.com/sketch -->
    <title>alien-3</title>
    <desc>Created with Sketch.</desc>
    <defs></defs>
    <g id="Page-1" stroke="none" stroke-width="1" fill="none" fill-rule="evenodd">
        <g id="alien-3" fill-rule="nonzero">
            <path d="M29.68,55.95 C29.1193763,55.9724418 28.5751072,55.7583627 28.18,55.36 C27.6042098,54.6888606 27.2237165,53.8725296 27.08,53 C26.2436844,52.7225622 25.5342525,52.1550167 25.08,51.4 C24.4912342,50.4757741 24.4304993,49.3104222 24.92,48.33 C25.3831847,47.3790896 26.3523306,46.7796981 27.41,46.79 L27.59,46.79 C27.8,46.52 27.99,46.27 28.18,46.06 L27.98,46.06 C25.7273532,46.1364546 23.479883,45.7974696 21.35,45.06 C17.97,43.73 13.51,41.14 13.77,34 C13.95,29.23 16.89,21.09 18.08,18 C16.8051006,17.1176923 15.619467,16.112918 14.54,15 C14.24,14.6 13.84,14.13 13.47,13.71 C12.47,15.26 11.86,15.8 10.93,15.8 C10.33,15.8 9.98,15.8 6.19,12.72 C4.23087966,12.9324033 2.32665907,11.9880971 1.31,10.3 C0.366394494,9.031055 0.245425679,7.32968714 1,5.94 C2.10513094,4.10362721 4.09678086,2.98617477 6.24,3 C6.47309576,2.98510932 6.70690424,2.98510932 6.94,3 C8.03372935,3.09525619 9.02421269,3.68439126 9.63,4.6 C9.8146048,4.88562941 9.95927867,5.19516419 10.06,5.52 C10.6452906,4.87137963 11.4670752,4.4857176 12.34,4.45 L12.52,4.45 C13.78,4.55 15.27,5.81 16.45,7.04 C17.7533554,7.00885756 19.0206925,7.46938285 20,8.33 C20.6007381,8.9563922 21.0280819,9.72836818 21.24,10.57 C22.19,8.52 24.3,5.11 28.01,4.57 C28.2550887,4.53503614 28.5024356,4.5183235 28.75,4.52 C32.31,4.52 36.65,8.27 39.03,10.62 C40.84,7.22 41.51,7.02 42.03,6.87 C42.221869,6.81544738 42.420532,6.78851004 42.62,6.79 C43.52,6.79 44.62,7.36 46.12,8.25 L47.53,6.63 C46.8583821,4.97532027 47.2534865,3.07881902 48.53,1.83 C49.4978664,0.719116608 50.896649,0.0780078924 52.37,0.07 C54.7373457,0.117563307 56.7710894,1.7643193 57.31,4.07 C57.6283381,5.14717297 57.4680549,6.30922607 56.87,7.26 C55.9572683,8.4867311 54.6452471,9.35669663 53.16,9.72 C48.93,15.81 48.47,15.92 47.83,16.08 C47.6658009,16.1169136 47.4982708,16.1370173 47.33,16.14 C46.5552874,16.071729 45.7978245,15.8722187 45.09,15.55 L44.57,17 C47.0604105,20.3428063 48.5920272,24.3014995 49,28.45 C49.46,34.45 49.41,40.04 43.87,42.7 C42.6833333,43.2666667 41.5433333,43.75 40.45,44.15 C40.6991973,44.4442473 40.8893332,44.7837756 41.01,45.15 C41.4488117,46.4399598 41.1239368,47.8670887 40.17,48.84 C39.6135535,49.3160557 38.9021983,49.5721436 38.17,49.56 C37.5106281,49.5665482 36.8650479,49.3711293 36.32,49 L36.09,48.83 L35.68,48.83 C35.68,49.23 35.68,49.53 35.68,49.75 C36.9,50.01 38.23,50.61 38.23,52.08 C38.23,53.55 36.79,55.45 35.23,55.45 L35.05,55.45 C34.301829,55.3598803 33.5708018,55.1611218 32.88,54.86 C31.9019951,55.4446285 30.8115242,55.8160702 29.68,55.95 Z" id="Shape" fill="#FFFFFF"></path>
            <path d="M20.1,17.37 C18.6019048,16.3204584 17.1815453,15.1641187 15.85,13.91 C15.18,13.04 13.27,10.79 13.06,11.08 C12.85,11.37 11.27,14.08 10.89,14.08 C9.39291168,13.0881944 7.96005148,12.0026942 6.6,10.83 C5.09368035,11.3049265 3.46025988,10.6632256 2.68,9.29 C1.06,6.87 4.1,4.37 6.68,4.71 C9.26,5.05 8.35,8.21 8.35,8.21 C8.35,8.21 9.43,9 9.52,8.88 C9.61,8.76 11.27,6.09 12.35,6.17 C13.43,6.25 15.68,8.8 15.68,8.8 C15.68,8.8 17.81,8.55 18.81,9.55 C19.81,10.55 19.64,12.05 20.06,12.09 C20.48,12.13 22.27,12.63 22.27,12.63 C22.27,12.63 24.02,6.88 28.27,6.25 C32.52,5.62 39.48,13.54 39.48,13.54 C39.48,13.54 41.81,8.71 42.48,8.54 C43.15,8.37 46.36,10.54 46.48,10.42 C46.6,10.3 49.61,6.84 49.61,6.84 C49.1212546,6.3078169 48.866211,5.60193994 48.9019189,4.88026422 C48.9376268,4.15858849 49.2611065,3.48133639 49.8,3 C50.6346359,2.00244938 51.9700327,1.57620723 53.2282579,1.90574242 C54.4864832,2.23527761 55.4415013,3.26139033 55.68,4.54 C56.47,7.46 52.14,8.25 52.14,8.25 C52.14,8.25 47.93,14.33 47.43,14.46 C46.93,14.59 44.18,13.29 44.1,13.46 C44.02,13.63 42.64,17.34 42.64,17.34 C45.2518653,20.5709599 46.8613175,24.4955205 47.27,28.63 C47.77,35.21 47.27,39.21 43.1,41.21 C40.670481,42.4689093 38.053366,43.3266476 35.35,43.75 C34.35,43.88 32.81,44 32.81,44 L33.19,45.79 L36.36,46.25 C36.6071685,45.4100061 37.4067277,44.8561448 38.28,44.92 C39.8,45 39.6,47 39,47.53 C38.501636,47.9084026 37.821516,47.9402211 37.29,47.61 C37,47.4 36.67,47.11 36.67,47.11 L33.88,47.11 C33.9461445,48.0121225 33.9461445,48.9178775 33.88,49.82 L33.76,50.2 L33.84,51.2 C33.84,51.2 36.47,51.37 36.47,52.03 C36.47,52.69 35.64,53.74 35.18,53.7 C34.4738688,53.5941881 33.7947887,53.3531146 33.18,52.99 C33.1,52.78 32.89,50.41 32.89,50.41 L32.22,50.41 C32.3505303,51.3070365 32.394066,52.2145881 32.35,53.12 C32.18,53.29 29.81,54.5 29.35,54.12 C28.89,53.74 28.43,52.12 28.81,52 C29.19,51.88 31.52,51.67 31.52,51.54 C31.52,51.41 31.52,50.54 31.52,50.54 C31.52,50.54 30.6,50 30.6,49.33 C30.6,48.66 30.52,47.71 30.52,47.71 C30.0485291,47.739678 29.6324921,48.0285926 29.44,48.46 C29.242214,48.783418 29.061954,49.1172328 28.9,49.46 C28.9,49.46 29.4,51.13 28.23,51.46 C27.06,51.79 25.73,50.29 26.31,49.17 C26.89,48.05 28.19,48.8 28.19,48.8 C28.7028487,48.0148099 29.3107918,47.2960263 30,46.66 C30.2663827,46.4888033 30.5436366,46.3351445 30.83,46.2 L31.04,44.2 C31.04,44.2 25.67,44.91 21.96,43.45 C18.25,41.99 15.25,39.66 15.46,34.03 C15.67,28.4 20.1,17.37 20.1,17.37 Z" id="Shape" fill="#1D1D1B"></path>
            <path d="M27.47,49.28 C27.77,49.06 28.3,50.2 27.97,50.45 C27.64,50.7 26.68,49.87 27.47,49.28 Z" id="Shape" fill="#673E7B"></path>
            <path d="M37.8,45.58 C38.42,45.58 38.8,45.75 38.8,46.29 C38.8,46.83 38.05,47.04 37.8,46.83 C37.55,46.62 37.47,45.58 37.8,45.58 Z" id="Shape" fill="#673E7B"></path>
            <path d="M33.1,49.12 C32.6698057,49.444317 32.1027179,49.5237092 31.6,49.33 C31.5470823,47.9186323 31.6578202,46.505885 31.93,45.12 C32.14,44.81 33.39,48.75 33.1,49.12 Z" id="Shape" fill="#C470EE" opacity="0.699999988"></path>
            <path d="M5.18,6.2 C6.25,6.2 7.3,6.12 7.47,7.41 C7.64,8.7 6.8,9.41 5.34,9.62 C3.88,9.83 3.51,8.24 3.6,7.78 C3.69,7.32 4.14,6.24 5.18,6.2 Z" id="Shape" fill="#F2910D"></path>
            <path d="M8.43,9.66 C8.61,9.66 9.64,10.66 9.97,10.37 C10.3,10.08 12.64,7.29 12.8,7.37 C12.96,7.45 15.38,10.37 15.8,10.25 C16.22,10.13 17.01,9.63 17.51,9.88 C18.01,10.13 18.68,10.51 18.76,10.96 C18.84,11.41 18.89,13.29 19.51,13.42 C20.13,13.55 21.72,13.63 21.68,13.84 C21.64,14.05 20.56,16.26 20.56,16.26 C19.0066562,15.7129425 17.6846926,14.6553715 16.81,13.26 C15.23,10.89 14.31,9.97 13.64,9.68 C12.97,9.39 12.72,9.26 12.47,9.51 C12.22,9.76 11.22,12.09 10.64,12.18 C10.06,12.27 7.77,10.43 7.77,10.18 C7.77,9.93 8.18,9.7 8.43,9.66 Z" id="Shape" fill="#FAB900"></path>
            <path d="M40.3,14.12 C40.3,14.12 42.38,9.37 42.93,9.66 C43.48,9.95 45.93,11.83 46.35,11.66 C46.77,11.49 50.27,7.37 50.48,7.49 C50.69,7.61 50.98,7.66 50.86,7.82 C50.74,7.98 47.18,13.24 47,13.2 C46.82,13.16 44,11.7 43.76,12 C43.52,12.3 41.93,16.42 41.76,16.17 C41.59,15.92 40.3,14.12 40.3,14.12 Z" id="Shape" fill="#FAB900"></path>
            <path d="M51.72,3.08 C54.1,2.46 54.93,4.46 54.43,5.66 C54.0864964,6.36193388 53.4074266,6.83903683 52.6306067,6.92422335 C51.8537868,7.00940986 51.0874599,6.69080995 50.6,6.08 C49.35,4.53 51.2,3.21 51.72,3.08 Z" id="Shape" fill="#F2910D"></path>
            <path d="M28.35,7.91 C30.24,7.28 35.14,10.54 40.06,16.91 C44.98,23.28 45.52,31.54 45.35,31.49 C45.18,31.44 43.52,30.28 43.35,30.32 C43.18,30.36 42.98,30.86 43.1,30.99 C43.22,31.12 45.23,32.2 45.27,32.49 C45.31,32.78 45.19,33.62 45.19,33.91 C45.1891888,34.0928915 45.1622499,34.274729 45.11,34.45 C44.273204,33.8918636 43.3899482,33.4067421 42.47,33 C42.35,33.13 41.93,33.75 42.14,33.83 C43.1292368,34.2971792 44.0647359,34.8705496 44.93,35.54 C44.8172547,35.950902 44.6490404,36.3445233 44.43,36.71 L44.26,36.92 L41.43,34.92 C41.43,34.92 40.56,35.34 40.93,35.67 C41.3,36 43.93,37.67 43.76,37.96 C43.59,38.25 42.85,39 42.85,39 C41.9599456,38.2517524 41.006333,37.5825506 40,37 C39.71,37 39.33,37.38 39.5,37.54 C39.67,37.7 42.17,39.62 42,39.75 C41.83,39.88 40.92,40.38 40.92,40.38 C40.92,40.38 38.84,38.84 38.67,38.8 C38.5,38.76 38.13,39.01 38.13,39.18 C38.13,39.35 40.26,40.76 40.13,40.85 C39.4966669,41.1539951 38.8232225,41.3661301 38.13,41.48 C38,41.28 36.8,40 36.35,40 C35.9,40 35.68,40.25 35.85,40.42 C36.02,40.59 37.39,41.59 37.23,41.71 C37.07,41.83 29.9,43.13 25.86,42.42 C21.82,41.71 19.26,40.7 18,37.16 C16.74,33.62 18.71,26.08 20.88,20.62 C23.05,15.16 25.22,9 28.35,7.91 Z" id="Shape" fill="#C470EE"></path>
            <path d="M20.64,35.87 C20.89,35.71 21.64,36.08 21.35,36.33 C21.06,36.58 20.6,36.87 20.48,37.33 C20.36,37.79 20.27,38 20.06,37.96 C19.9389545,37.9381706 19.831693,37.8687741 19.7621706,37.767309 C19.6926483,37.6658439 19.6666564,37.5407626 19.69,37.42 C19.8387296,36.8175116 20.1706403,36.2759731 20.64,35.87 Z" id="Shape" fill="#1D1D1B"></path>
            <path d="M22.68,37.45 C23.02,37.45 23.47,38.78 24.85,39.08 C26.23,39.38 27.85,39.54 28.06,40 C28.1213523,40.2777601 28.0615103,40.5685039 27.8954526,40.7994577 C27.729395,41.0304114 27.4728385,41.1797159 27.19,41.21 C25.7226561,40.9941426 24.3257543,40.4394904 23.11,39.59 C22.1,38.7 21.85,37.45 22.68,37.45 Z" id="Shape" fill="#1D1D1B"></path>
            <path d="M25.85,15.08 C25.79,14.97 25.93,14.41 26.6,12.79 C27.27,11.17 28.43,10.79 28.68,11.04 C28.93,11.29 29.01,11.54 28.85,11.71 C28.0643119,12.087961 27.4424866,12.7382125 27.1,13.54 C26.68,14.79 26.77,14.96 26.56,15.12 C26.35,15.28 26,15.33 25.85,15.08 Z" id="Shape" fill="#1D1D1B"></path>
            <path d="M24.35,20.41 C24.3,20.15 25.85,18.83 28.6,17.95 C31.35,17.07 33.43,17.24 33.48,17.66 C33.4879764,18.0237244 33.4476238,18.3868978 33.36,18.74 C31.7516745,18.4437263 30.0925469,18.603058 28.57,19.2 C26.28,20.2 25.11,21.12 24.9,21.12 C24.69,21.12 24.39,20.62 24.35,20.41 Z" id="Shape" fill="#1D1D1B"></path>
            <path d="M30.14,21 C34.39,19.9 39.39,23 40.14,26.71 C40.89,30.42 39.35,35.59 33.27,36.38 C27.19,37.17 23.98,34.8 23.27,30.84 C22.56,26.88 24,22.53 30.14,21 Z" id="Shape" fill="#1D1D1B"></path>
            <path d="M30.41,22.29 C33.92,21.38 38.05,23.94 38.63,27 C39.21,30.06 38,34.33 33,35 C28,35.67 25.33,33.69 24.78,30.42 C24.23,27.15 25.35,23.59 30.41,22.29 Z" id="Shape" fill="#E6E4DA"></path>
            <path d="M30.83,24.37 C33.18,23.76 35.95,25.48 36.34,27.53 C36.6460042,28.7540428 36.4015924,30.050689 35.6709674,31.079332 C34.9403425,32.1079751 33.7965338,32.7657972 32.54,32.88 C29.17,33.32 27.4,32 27.03,29.81 C26.66,27.62 27.44,25.24 30.83,24.37 Z" id="Shape" fill="#1D1D1B"></path>
            <path d="M31.89,25.78 C32.36,25.54 34.31,26.91 34.02,27.36 C33.73,27.81 31.77,27.94 31.56,27.74 C31.35,27.54 31.3,26.08 31.89,25.78 Z" id="Shape" fill="#E6E4DA"></path>
        </g>
    </g>
</svg>